<svg width="32" height="20" viewBox="0 0 32 30" fill="none" xmlns="http://www.w3.org/2000/svg">
<path fill-rule="evenodd" clip-rule="evenodd" d="M5.74 15.5002L9.68 19.4402C9.82737 19.5775 9.94558 19.7431 10.0276 19.9271C10.1095 20.1111 10.1536 20.3097 10.1572 20.5111C10.1607 20.7125 10.1237 20.9126 10.0482 21.0994C9.9728 21.2862 9.86051 21.4558 9.71808 21.5983C9.57564 21.7407 9.40597 21.853 9.2192 21.9284C9.03242 22.0039 8.83236 22.0409 8.63095 22.0374C8.42955 22.0338 8.23092 21.9897 8.04692 21.9077C7.86293 21.8258 7.69732 21.7076 7.56 21.5602L1.06 15.0602L0 14.0002L1.06 12.9402L7.56 6.44018C7.84435 6.17522 8.22044 6.03097 8.60905 6.03783C8.99765 6.04469 9.36842 6.20211 9.64324 6.47694C9.91807 6.75176 10.0755 7.12253 10.0823 7.51114C10.0892 7.89974 9.94496 8.27583 9.68 8.56018L5.74 12.5002H25.5C27.2239 12.5002 28.8772 13.185 30.0962 14.404C31.3152 15.623 32 17.2763 32 19.0002C32 20.7241 31.3152 22.3774 30.0962 23.5964C28.8772 24.8154 27.2239 25.5002 25.5 25.5002H21.5C21.1022 25.5002 20.7206 25.3421 20.4393 25.0608C20.158 24.7795 20 24.398 20 24.0002C20 23.6024 20.158 23.2208 20.4393 22.9395C20.7206 22.6582 21.1022 22.5002 21.5 22.5002H25.5C26.4283 22.5002 27.3185 22.1314 27.9749 21.4751C28.6313 20.8187 29 19.9284 29 19.0002C29 18.0719 28.6313 17.1817 27.9749 16.5253C27.3185 15.8689 26.4283 15.5002 25.5 15.5002H5.74Z" fill="#D8D2C5"/>
</svg>
