<svg width="45" height="60" viewBox="0 0 60 80" fill="none" xmlns="http://www.w3.org/2000/svg">
<path d="M11.8974 14.2962C11.3451 13.3396 11.6728 12.1164 12.6294 11.5641L16.8934 9.10232C17.85 8.55004 19.0731 8.87779 19.6254 9.83437L36.5592 39.1646C37.1115 40.1212 36.7838 41.3444 35.8272 41.8967L31.5633 44.3585C30.6067 44.9107 29.3835 44.583 28.8312 43.6264L11.8974 14.2962Z" fill="#EA7333"/>
<path d="M21.2098 7.81914C20.8459 7.18884 20.8531 6.4106 21.2287 5.78716L24.1316 0.96802C24.9175 -0.336695 26.8153 -0.319078 27.5768 1L44.5182 30.3433C44.9033 31.0104 44.8707 31.8401 44.435 32.4753C43.2821 34.1562 42.3777 35.4748 41.3488 36.9749C40.5166 38.1883 38.7029 38.1182 37.9673 36.8439L21.2098 7.81914Z" fill="#58613E"/>
<path d="M9.35983 14.6601C8.99592 14.0298 8.31833 13.647 7.59065 13.6605L1.96568 13.7649C0.442805 13.7932 -0.490809 15.4455 0.270762 16.7646L17.2121 46.1079C17.5973 46.7749 18.3312 47.1616 19.0992 47.1019L24.5402 46.6789C26.0072 46.5648 26.853 44.9591 26.1173 43.6849L9.35983 14.6601Z" fill="#BB4E11"/>
<path d="M17.4967 1.98403C18.2582 3.30311 16.3595 5.82508 13.2558 7.61701C10.1521 9.40894 7.01869 9.79226 6.25712 8.47318C5.49555 7.1541 7.39423 4.63213 10.4979 2.84021C13.6017 1.04828 16.7351 0.664955 17.4967 1.98403Z" fill="#FFFCF5"/>
<path d="M43.5877 59.6942L27.6722 49.7703L42.951 40.949L43.5877 59.6942Z" fill="#FFFCF5"/>
<defs>
<linearGradient id="paint0_linear_740_612" x1="22.393" y1="0" x2="22.393" y2="59.6942" gradientUnits="userSpaceOnUse">
<stop stop-color="#EA7333"/>
</linearGradient>
</defs>
</svg>
