<svg width="100" height="100" viewBox="0 0 100 100" fill="none" xmlns="http://www.w3.org/2000/svg">
<path d="M36.8974 35.2962C36.3451 34.3396 36.6728 33.1164 37.6294 32.5641L41.8934 30.1023C42.85 29.55 44.0731 29.8778 44.6254 30.8344L61.5592 60.1646C62.1115 61.1212 61.7838 62.3444 60.8272 62.8967L56.5633 65.3585C55.6067 65.9107 54.3835 65.583 53.8312 64.6264L36.8974 35.2962Z" fill="#EA7333"/>
<path d="M46.2098 28.8191C45.8459 28.1888 45.8531 27.4106 46.2287 26.7872L49.1316 21.968C49.9175 20.6633 51.8153 20.6809 52.5768 22L69.5182 51.3433C69.9033 52.0104 69.8707 52.8401 69.435 53.4753C68.2821 55.1562 67.3777 56.4748 66.3488 57.9749C65.5166 59.1883 63.7029 59.1182 62.9673 57.8439L46.2098 28.8191Z" fill="#BB4E11"/>
<path d="M34.3598 35.6601C33.9959 35.0298 33.3183 34.647 32.5906 34.6605L26.9657 34.7649C25.4428 34.7932 24.5092 36.4455 25.2708 37.7646L42.2121 67.1079C42.5973 67.7749 43.3312 68.1616 44.0992 68.1019L49.5402 67.6789C51.0072 67.5648 51.853 65.9591 51.1173 64.6849L34.3598 35.6601Z" fill="#959B88"/>
<path d="M42.4967 22.984C43.2582 24.3031 41.3595 26.8251 38.2558 28.617C35.1521 30.4089 32.0187 30.7923 31.2571 29.4732C30.4955 28.1541 32.3942 25.6321 35.4979 23.8402C38.6017 22.0483 41.7351 21.665 42.4967 22.984Z" fill="#D8D2C5"/>
<path d="M68.5877 80.6942L52.6722 70.7703L67.951 61.949L68.5877 80.6942Z" fill="#D8D2C5"/>
<defs>
<linearGradient id="paint0_linear_743_604" x1="47.393" y1="21" x2="47.393" y2="80.6942" gradientUnits="userSpaceOnUse">
<stop stop-color="#EA7333"/>
</linearGradient>
</defs>
</svg>
